<svg width="25" height="25" viewBox="0 0 25 25" fill="none" xmlns="http://www.w3.org/2000/svg">
<g filter="url(#filter0_d_116_550)">
<path d="M8.96909 17.0535C8.68909 16.6935 8.33909 15.9635 7.72909 15.0535C7.37909 14.5535 6.51909 13.6035 6.25909 13.1135C6.07166 12.8157 6.01728 12.4531 6.10909 12.1135C6.26605 11.4677 6.87865 11.0393 7.53909 11.1135C8.04989 11.2161 8.51931 11.4665 8.88909 11.8335C9.14727 12.0767 9.38476 12.3409 9.59909 12.6235C9.75909 12.8235 9.79909 12.9035 9.97909 13.1335C10.1591 13.3635 10.2791 13.5935 10.1891 13.2535C10.1191 12.7535 9.99909 11.9135 9.82909 11.1635C9.69909 10.5935 9.66909 10.5035 9.54909 10.0735C9.42909 9.64349 9.35909 9.28349 9.22909 8.79349C9.11026 8.31206 9.0168 7.82472 8.94909 7.33349C8.82304 6.70519 8.91475 6.0527 9.20909 5.48349C9.55848 5.15486 10.071 5.06812 10.5091 5.26349C10.9497 5.58882 11.2782 6.04314 11.4491 6.56349C11.7112 7.20388 11.8861 7.87655 11.9691 8.56349C12.1291 9.56349 12.4391 11.0235 12.4491 11.3235C12.4491 10.9535 12.3791 10.1735 12.4491 9.82349C12.5184 9.45861 12.772 9.1558 13.1191 9.02349C13.4169 8.93211 13.7319 8.91157 14.0391 8.96349C14.3491 9.0283 14.6238 9.20663 14.8091 9.46349C15.0408 10.0469 15.1693 10.6661 15.1891 11.2935C15.2159 10.7441 15.3099 10.2 15.4691 9.67349C15.6362 9.43804 15.8802 9.26828 16.1591 9.19349C16.4897 9.13304 16.8285 9.13304 17.1591 9.19349C17.4302 9.28412 17.6673 9.455 17.8391 9.68349C18.0509 10.2138 18.1791 10.7738 18.2191 11.3435C18.2191 11.4835 18.2891 10.9535 18.5091 10.6035C18.6234 10.2641 18.9101 10.0115 19.2612 9.94076C19.6123 9.87007 19.9745 9.99205 20.2112 10.2608C20.448 10.5295 20.5234 10.9041 20.4091 11.2435C20.4091 11.8935 20.4091 11.8635 20.4091 12.3035C20.4091 12.7435 20.4091 13.1335 20.4091 13.5035C20.3727 14.0887 20.2924 14.6703 20.1691 15.2435C19.9951 15.7506 19.7528 16.2317 19.4491 16.6735C18.9635 17.2135 18.5623 17.8237 18.2591 18.4835C18.1838 18.8113 18.1503 19.1473 18.1591 19.4835C18.1581 19.7941 18.1984 20.1035 18.2791 20.4035C17.8702 20.4467 17.458 20.4467 17.0491 20.4035C16.6591 20.3435 16.1791 19.5635 16.0491 19.3235C15.9848 19.1946 15.8531 19.1132 15.7091 19.1132C15.5651 19.1132 15.4334 19.1946 15.3691 19.3235C15.1491 19.7035 14.6591 20.3935 14.3191 20.4335C13.6491 20.5135 12.2691 20.4335 11.1791 20.4335C11.1791 20.4335 11.3591 19.4335 10.9491 19.0735C10.5391 18.7135 10.1191 18.2935 9.80909 18.0135L8.96909 17.0535Z" fill="white"/>
<path fill-rule="evenodd" clip-rule="evenodd" d="M8.96909 17.0535C8.68909 16.6935 8.33909 15.9635 7.72909 15.0535C7.37909 14.5535 6.51909 13.6035 6.25909 13.1135C6.07166 12.8157 6.01728 12.4531 6.10909 12.1135C6.26605 11.4677 6.87865 11.0393 7.53909 11.1135C8.04989 11.2161 8.51931 11.4665 8.88909 11.8335C9.14727 12.0767 9.38476 12.3409 9.59909 12.6235C9.75909 12.8235 9.79909 12.9035 9.97909 13.1335C10.1591 13.3635 10.2791 13.5935 10.1891 13.2535C10.1191 12.7535 9.99909 11.9135 9.82909 11.1635C9.69909 10.5935 9.66909 10.5035 9.54909 10.0735C9.42909 9.64349 9.35909 9.28349 9.22909 8.79349C9.11026 8.31206 9.0168 7.82472 8.94909 7.33349C8.82304 6.70519 8.91475 6.0527 9.20909 5.48349C9.55848 5.15486 10.071 5.06812 10.5091 5.26349C10.9497 5.58882 11.2782 6.04314 11.4491 6.56349C11.7112 7.20388 11.8861 7.87655 11.9691 8.56349C12.1291 9.56349 12.4391 11.0235 12.4491 11.3235C12.4491 10.9535 12.3791 10.1735 12.4491 9.82349C12.5184 9.45861 12.772 9.1558 13.1191 9.02349C13.4169 8.93211 13.7319 8.91157 14.0391 8.96349C14.3491 9.0283 14.6238 9.20663 14.8091 9.46349C15.0408 10.0469 15.1693 10.6661 15.1891 11.2935C15.2159 10.7441 15.3099 10.2 15.4691 9.67349C15.6362 9.43804 15.8802 9.26828 16.1591 9.19349C16.4897 9.13304 16.8285 9.13304 17.1591 9.19349C17.4302 9.28412 17.6673 9.455 17.8391 9.68349C18.0509 10.2138 18.1791 10.7738 18.2191 11.3435C18.2191 11.4835 18.2891 10.9535 18.5091 10.6035C18.6234 10.2641 18.9101 10.0115 19.2612 9.94076C19.6123 9.87007 19.9745 9.99205 20.2112 10.2608C20.448 10.5295 20.5234 10.9041 20.4091 11.2435C20.4091 11.8935 20.4091 11.8635 20.4091 12.3035C20.4091 12.7435 20.4091 13.1335 20.4091 13.5035C20.3727 14.0887 20.2924 14.6703 20.1691 15.2435C19.9951 15.7506 19.7528 16.2317 19.4491 16.6735C18.9635 17.2135 18.5623 17.8237 18.2591 18.4835C18.1838 18.8113 18.1503 19.1473 18.1591 19.4835C18.1581 19.7941 18.1984 20.1035 18.2791 20.4035C17.8702 20.4467 17.458 20.4467 17.0491 20.4035C16.6591 20.3435 16.1791 19.5635 16.0491 19.3235C15.9848 19.1946 15.8531 19.1132 15.7091 19.1132C15.5651 19.1132 15.4334 19.1946 15.3691 19.3235C15.1491 19.7035 14.6591 20.3935 14.3191 20.4335C13.6491 20.5135 12.2691 20.4335 11.1791 20.4335C11.1791 20.4335 11.3591 19.4335 10.9491 19.0735C10.5391 18.7135 10.1191 18.2935 9.80909 18.0135L8.96909 17.0535Z" stroke="black" stroke-width="0.75" stroke-linecap="round" stroke-linejoin="round"/>
<path d="M17.4492 17.5993V14.1475C17.4492 13.9409 17.2813 13.7734 17.0742 13.7734C16.8671 13.7734 16.6992 13.9409 16.6992 14.1475V17.5993C16.6992 17.8059 16.8671 17.9734 17.0742 17.9734C17.2813 17.9734 17.4492 17.8059 17.4492 17.5993Z" fill="black"/>
<path d="M15.4692 17.5981L15.4492 14.1445C15.448 13.9384 15.2792 13.7723 15.0721 13.7734C14.865 13.7746 14.698 13.9427 14.6992 14.1488L14.7192 17.6024C14.7204 17.8085 14.8893 17.9746 15.0964 17.9734C15.3035 17.9722 15.4704 17.8042 15.4692 17.5981Z" fill="black"/>
<path d="M12.6992 14.1524L12.7192 17.5988C12.7204 17.8069 12.8893 17.9746 13.0964 17.9734C13.3035 17.9722 13.4704 17.8025 13.4692 17.5944L13.4492 14.148C13.448 13.9399 13.2791 13.7722 13.072 13.7734C12.8649 13.7747 12.698 13.9443 12.6992 14.1524Z" fill="black"/>
</g>
<defs>
<filter id="filter0_d_116_550" x="4.89043" y="4.78528" width="16.7465" height="17.8588" filterUnits="userSpaceOnUse" color-interpolation-filters="sRGB">
<feFlood flood-opacity="0" result="BackgroundImageFix"/>
<feColorMatrix in="SourceAlpha" type="matrix" values="0 0 0 0 0 0 0 0 0 0 0 0 0 0 0 0 0 0 127 0" result="hardAlpha"/>
<feOffset dy="1"/>
<feGaussianBlur stdDeviation="0.4"/>
<feColorMatrix type="matrix" values="0 0 0 0 0 0 0 0 0 0 0 0 0 0 0 0 0 0 0.5 0"/>
<feBlend mode="normal" in2="BackgroundImageFix" result="effect1_dropShadow_116_550"/>
<feBlend mode="normal" in="SourceGraphic" in2="effect1_dropShadow_116_550" result="shape"/>
</filter>
</defs>
</svg>
