<svg width="154" height="154" viewBox="0 0 154 154" fill="none" xmlns="http://www.w3.org/2000/svg">
<path d="M144.818 82.4186L144.548 82.6921L144.038 82.3773L143.833 81.8331L143.831 81.0888L143.467 80.9101L143.134 81.0161L142.812 81.4047L142.49 81.4113L142.414 80.599L142.037 80.3585L141.496 80.3422L141.032 80.7362L140.23 80.3306L139.367 80.1198L138.913 80.2332L138.062 80.1041L137.814 80.3597L137.799 80.499L138.122 80.8745L138.066 81.4116L138.326 81.6197L138.313 81.7391L137.712 81.7165L137.572 81.903L137.048 81.7275L136.858 81.4262L136.952 80.9131L137.008 80.376L136.968 79.9898L137.159 78.1597L137.448 77.5063L137.671 77.4894L138.065 77.5707L138.255 77.8721L138.201 78.3892L138.098 78.5997L138.084 78.739L138.544 79.149L141.285 79.4755L141.812 79.8122L143.803 79.618L144.098 79.488L144.278 79.3057L144.272 78.9833L144.082 78.6819L144.149 78.4275L144.805 78.114L145.235 78.0383L145.601 78.1971L145.854 78.4649L145.648 79.2879L145.615 80.3704L145.672 80.5975L145.345 81.0259L145.402 81.6351L145.236 82.4623L144.818 82.4186ZM138.247 85.8344L137.59 85.9668L137.236 85.8896L136.427 85.1616L136.255 84.5002L136.326 83.8239L136.472 83.5777L136.503 83.2794L138.054 82.6772L138.668 82.5805L139.022 82.6576L139.181 82.6743L139.632 82.3996L140.02 82.3397L140.198 82.1773L140.12 81.767L140.6 81.2139L140.928 80.9665L141.524 81.2299L141.551 82.3186L141.651 82.5101L141.76 82.622L142.139 82.8426L142.598 82.6894L142.785 83.0106L143.425 83.2383L143.915 83.1689L144.42 83.3422L144.796 83.7837L145.161 83.9426L145.252 84.2335L145.299 85.1233L144.861 85.6607L144.799 85.8753L143.8 86.5754L143.311 86.4439L142.378 85.9442L142.276 85.7726L142.434 85.025L142.495 84.8303L142.507 84.7109L142.268 83.9218L141.556 83.8072L141.405 83.3289L141.205 83.127L140.906 83.0958L140.639 83.3494L140.995 83.7888L140.986 83.8684L140.855 83.9752L140.29 83.7956L139.78 83.863L139.402 84.0245L138.785 83.9601L138.305 84.1311L137.98 84.1575L137.848 84.2644L137.956 84.7783L138.322 85.1183L138.442 85.1308L138.39 85.628L138.247 85.8344ZM137.885 82.378L137.706 82.3593L137.65 82.3133L137.665 82.174L137.733 82.1007L137.941 82.223L137.885 82.378Z" fill="white" fill-opacity="0.6"/>
<path d="M140.717 100.993L140.356 100.874L139.989 99.4903L140.247 99.1541L140.019 98.9526L139.366 98.696L139.03 98.3749L137.7 97.9377L137.351 97.781L136.218 97.577L135.812 97.2751L135.42 97.1882L135.268 97.1383L134.927 97.4053L134.803 97.7853L134.563 98.0014L134.482 98.2484L133.576 97.9296L133.503 97.1266L133.791 96.3791L134.213 95.9916L134.218 95.6564L134.438 95.3076L134.563 94.9276L134.758 94.7181L134.852 94.4331L135.363 94.159L135.743 94.2839L135.852 94.5934L135.637 94.7334L135.531 95.0564L135.741 95.3148L136.025 95.282L136.158 95.3257L136.016 96.0157L136.137 96.2872L136.327 96.3496L136.801 96.1895L137.067 96.277L137.237 96.1434L137.921 96.3683L138.06 96.3298L138.421 96.5749L138.646 97.2381L138.786 97.4525L139.595 97.2974L140.452 96.674L140.515 96.484L140.324 96.3583L139.464 96.2227L139.532 96.0137L139.88 95.9174L140.032 95.9674L140.208 95.8148L140.226 95.6313L139.966 95.2719L139.072 94.8519L138.198 94.5646L137.706 94.8449L137.529 94.871L137.319 94.6758L137.279 94.0941L137.158 93.9491L136.797 93.8305L136.734 93.8307L136.544 93.7683L136.377 93.2503L135.718 92.9495L135.575 91.8496L135.755 91.1089L136.341 90.5436L136.492 90.3405L136.694 90.2385L137.738 90.3923L138.227 90.9531L138.303 90.9781L138.431 91.2306L138.105 91.9656L137.29 92.1397L137.095 92.3493L137.022 93.02L137.237 93.1962L137.75 93.3648L137.897 93.6235L138.34 93.8114L139.082 94.1815L139.545 94.5021L140.406 94.7009L140.819 95.1103L141.381 95.0637L141.829 94.7898L141.854 94.6506L141.904 94.4986L142.239 94.377L142.567 94.148L142.679 93.806L142.881 93.7039L143.211 93.8544L143.365 94.4103L142.639 96.2348L142.716 96.5128L142.053 96.9266L142.333 97.2923L142.229 98.1212L141.892 99.2737L141.653 99.4897L141.718 100.059L141.19 100.769L140.717 100.993ZM140.775 96.6537L140.737 96.7677L140.908 96.8239L140.946 96.7099L140.775 96.6537Z" fill="white" fill-opacity="0.6"/>
<path d="M132.361 112.192L130.751 111.496L130.088 110.849L129.108 109.597L128.828 108.734L128.726 108.279L128.621 107.59L129.333 106.385L129.297 106.131L129.491 105.804L129.83 105.702L129.977 105.139L130.413 104.793L130.617 104.448L131.589 104.14L131.79 103.957L132.37 103.997L132.791 103.874L133.479 104.165L134.679 104.571L135.1 104.96L135.858 105.407L136.484 106.195L136.855 106.786L137.262 107.12L137.326 107.483L137.206 107.923L137.45 108.531L137.35 108.937L137.347 109.493L137.204 109.734L137.04 109.776L136.98 110.112L137.033 110.26L136.635 110.698L135.825 111.753L134.894 111.993L134.772 112.199L133.551 112.221L132.361 112.192ZM130.862 110.168L131.422 110.871L131.789 110.879L133.243 111.249L134.395 111.187L134.935 110.391L135.421 110.236L136.478 108.84L136.265 108.296L136.072 107.207L135.014 106.442L134.805 105.97L134.581 105.838L134.062 105.694L133.649 105.45L132.591 105.196L132.479 105.386L131.529 105.499L130.634 105.992L130.254 106.557L129.959 107.056L129.953 107.262L129.791 107.538L129.778 107.716L130.005 108.315L129.924 108.453L129.948 109.001L130.39 109.471L130.862 110.168Z" fill="white" fill-opacity="0.6"/>
<path d="M125.076 125.494L124.595 125.513L124.309 125.086L124.268 124.748L124.688 124.292L124.939 123.844L124.816 123.594L123.699 122.563L123.428 122.503L123.251 122.34L123.199 122.101L122.479 121.437L122.016 120.818L121.637 120.197L121.244 120.269L120.802 119.834L120.296 119.939L119.767 120.158L119.688 120.303L119.378 120.344L119.143 120.127L119.166 119.984L119.935 119.033L120.156 118.557L120.626 118.284L121.074 117.799L121.728 117.858L121.777 118.04L121.729 118.594L121.574 118.614L121.411 118.79L121.453 119.128L122.184 119.722L123.037 120.509L123.441 120.719L123.483 120.703L123.592 120.586L123.595 120.316L124.011 120.102L124.04 119.421L124.714 119.281L125.277 118.494L125.659 118.493L125.714 118.08L125.69 117.841L124.891 117.321L124.411 116.661L123.683 116.152L123.471 116.146L123.392 116.645L122.754 116.628L122.622 116.506L122.693 116.163L123.175 115.464L124.542 114.278L124.914 114.022L125.194 114.28L125.099 114.736L124.599 114.983L124.653 115.278L125.155 116.15L125.553 116.19L125.949 116.882L126.733 117.389L127.865 118.433L128.567 119.353L128.812 119.471L129.266 119.481L129.709 118.883L130.163 118.922L130.491 119.333L129.91 120.021L129.944 120.162L128.917 121.038L128.768 121.199L128.793 121.467L128.492 121.734L127.615 121.741L127.468 121.605L127.461 121.436L128.085 120.76L127.997 119.971L127.448 119.681L127.181 119.38L126.91 118.967L126.647 118.779L126.255 118.88L125.767 119.409L125.806 119.69L125.393 119.962L125.478 120.694L125.37 120.812L124.884 120.69L124.516 120.35L124.289 120.331L124.248 120.375L124.437 120.849L124.798 121.372L124.314 121.307L124.233 121.395L124.48 121.923L125.259 122.642L125.343 122.964L125.631 123.094L125.841 123.043L126.174 122.506L126.996 122.53L127.136 122.85L127.163 123.174L125.989 124.622L125.983 124.807L125.076 125.494Z" fill="white" fill-opacity="0.6"/>
<path d="M112.958 134.446L112.809 134.233L113.148 133.532L113.235 133.202L113.857 132.767L113.887 131.867L113.569 131.064L112.929 130.707L112.75 130.173L112.367 129.904L111.566 128.341L111.05 128.092L110.789 128.103L110.248 128.482L109.791 128.387L109.45 128.527L108.802 128.054L108.494 127.928L108.368 127.259L107.927 126.42L107.991 125.57L108.156 125.283L108.386 125.123L108.861 125.278L109.828 126.555L109.983 126.568L110.426 126.258L110.742 126.257L111.355 125.877L111.643 125.87L111.918 125.531L112.167 125.503L112.38 125.11L112.77 124.935L113.046 124.595L113.275 124.435L113.626 124.482L114.068 123.929L114.511 123.619L114.678 123.404L114.937 123.321L114.973 122.954L114.324 121.748L114.393 121.358L115.038 121.199L115.186 121.096L115.515 121.183L116.103 122.163L116.529 123.329L116.351 124.016L116.078 124.255L115.985 125.028L115.998 125.117L115.883 125.197L115.441 125.018L115.343 125.087L115.52 125.793L115.397 126.49L115.864 127.017L116.864 128.587L117.089 129.187L117.497 129.56L117.774 129.538L117.864 129.352L117.929 129.307L118.036 129.354L118.288 129.715L118.621 129.702L118.934 129.312L119.13 129.174L119.819 129.425L120.115 130.511L119.999 130.763L119.442 131.153L119.432 131.209L119.015 131.451L118.696 131.553L118.204 131.897L117.993 131.874L117.624 132.254L117.539 132.411L117.149 132.587L116.74 132.873L116.407 132.886L115.761 133.289L115.417 133.53L115.232 133.928L114.591 134.059L114.228 134.412L112.958 134.446ZM113.799 128.951L113.9 129.27L114.818 130.337L115.359 130.447L115.888 130.784L116.07 130.73L116.383 130.34L116.027 129.832L115.526 129.744L115.423 129.596L115.441 129.413L115.473 129.39L115.562 129.377L115.775 129.472L115.762 129.383L114.946 128.148L114.402 127.65L114.364 127.212L114.076 126.486L113.64 126.108L113.424 126.113L112.837 126.67L112.659 127.112L113.317 128.262L113.869 128.633L113.799 128.951Z" fill="white" fill-opacity="0.6"/>
<path d="M98.4338 135.767L97.3462 134.878L97.4256 134.498L97.493 134.297L97.6959 134.212L97.8916 133.436L98.0512 133.196L98.9831 132.936L99.4984 132.872L100.085 133.082L100.795 132.914L101.121 132.605L101.43 132.15L101.84 131.783L102.469 131.629L103.525 130.991L104.252 130.969L105.422 131.433L105.741 131.365L106.278 131.769L106.572 132.47L106.733 132.597L106.796 133.005L106.463 133.816L106.218 134.786L105.811 135.108L105.898 135.418L105.323 135.702L105.129 135.913L104.491 136.202L104.181 136.549L103.941 136.649L103.832 136.283L102.952 136.825L102.925 137.226L103.181 137.423L103.769 137.74L103.643 138.422L104.196 138.863L104.337 138.89L104.374 138.875L104.472 138.487L104.78 138.445L105.098 138.637L105.182 138.732L105.403 138.639L105.585 137.934L105.338 137.344L105.588 136.697L106.225 136.149L106.948 135.803L107.39 136.03L107.763 136.611L107.922 137.303L107.364 138.404L106.899 138.794L106.487 139.053L106.224 139.358L105.412 139.698L105.158 140.021L104.861 140.037L104.347 139.949L103.572 140.273L101.876 140.159L100.983 139.579L100.913 138.893L100.828 138.69L100.527 138.49L100.339 137.832L100.03 137.094L100.131 136.662L99.751 135.91L99.633 135.265L99.34 134.824L99.1907 134.778L98.6552 135.675L98.4338 135.767ZM102.474 137.545L102.479 138.129L102.986 138.458L103.133 138.397L103.213 138.277L103.136 138.092L102.695 137.453L102.474 137.545ZM100.908 134.84L101.459 136.366L101.786 136.576L101.893 136.054L102.077 135.977L102.331 136.066L102.794 135.72L103.064 135.434L103.361 135.158L103.67 135.224L104.402 135.004L104.932 134.457L105.311 134.276L105.557 133.827L105.513 133.411L105.309 132.716L105.039 132.591L104.608 132.337L104.287 132.45L103.871 132.234L103.304 132.276L102.73 132.148L102.582 132.21L102.461 132.542L102.481 133.315L102.348 133.413L101.931 133.349L101.758 133.66L101.411 133.763L101.146 133.96L100.9 134.562L100.908 134.84Z" fill="white" fill-opacity="0.6"/>
<path d="M88.3189 147.705L88.0299 146.68L88.2389 146.378L88.5072 146.288L88.6804 146.012L88.5149 145.107L88.7707 145.061L89.322 145.407L89.5188 145.371L89.6776 145.017L89.656 144.899L90.0836 144.902L90.3319 144.592L90.7844 144.51L91.003 144.815L91.1394 145.339L91.3095 145.491L91.6509 145.246L91.7402 145.067L91.7078 144.89L91.4286 144.697L91.407 144.579L91.4857 144.564L91.8149 144.586L92.0816 144.821L92.2443 144.71L92.3514 144.406L92.5157 144.193L92.6268 144.356L92.6987 144.749L92.9547 144.926L93.5718 144.854L94.1807 145.515L94.421 146.163L94.3857 146.637L93.7066 147.371L93.3045 147.729L92.9163 147.719L92.6711 147.601L92.376 147.655L91.9493 146.655L91.8526 146.571L91.5911 146.253L91.3013 146.225L91.0796 146.346L91.0087 147.071L90.6777 146.928L90.336 146.95L90.4331 147.481L89.6826 148.269L89.2354 148.269L88.3189 147.705ZM87.0193 144.934L86.7794 144.734L86.754 144.372L87.0739 144.009L87.7569 143.742L87.9789 143.843L88.0969 143.822L88.195 143.58L87.9135 142.818L87.972 142.36L87.6443 142.014L87.3962 140.656L87.4425 140.465L87.8969 140.504L88.3949 141.226L88.4916 141.31L89.2785 141.166L89.405 140.634L89.6731 140.321L89.5582 139.915L89.8067 139.829L89.9354 139.643L89.9279 139.38L90.2228 139.102L90.3246 138.881L90.1663 138.015L90.2949 137.829L90.8727 137.764L91.0387 137.449L90.6605 136.603L90.762 136.157L91.0087 135.95L91.7457 135.978L91.9727 135.773L93.3767 135.557L93.5379 135.772L93.5703 135.949L93.3738 136.209L92.5868 136.352L92.3118 136.85L91.6681 137.11L91.6493 138.008L91.8251 138.525L92.1096 138.635L92.6015 138.546L93.0333 139.239L92.9533 139.803L93.4649 141.6L93.7378 142.648L94.0564 142.834L94.686 142.719L94.8721 142.847L94.8831 143.13L94.5775 143.349L94.1178 143.392L93.4844 143.264L92.7032 143.773L92.5261 143.805L92.2646 143.487L91.946 143.301L91.756 142.929L91.9521 142.222L92.3684 141.719L92.3073 141.385L91.8436 140.961L91.4674 140.461L91.3297 140.486L90.9914 140.304L90.5725 140.014L90.2184 140.079L90.2438 140.44L90.0583 140.983L89.8262 141.493L90.1057 141.909L89.8072 142.167L89.8544 142.87L90.2414 143.43L90.1701 143.707L89.97 143.947L89.6283 143.969L89.231 143.797L88.97 143.926L88.8629 144.231L88.3783 144.36L87.9512 144.804L87.0193 144.934ZM85.8725 137.438L85.8329 137.221L86.1137 137.089L86.4371 136.745L87.022 136.719L87.5926 136.615L87.7912 136.701L88.1094 136.439L88.5297 136.403L88.6981 136.657L88.7305 136.834L88.534 137.093L87.9169 137.166L87.8329 137.262L88.0428 137.854L88.02 138.285L87.7342 138.724L87.7845 138.999L88.1105 139.448L88.1647 139.967L87.8427 139.985L87.5078 139.599L87.1691 138.969L87.0756 138.458L87.2095 138.189L87.0464 137.853L86.1731 137.525L86.0551 137.547L85.8725 137.438ZM92.8852 141.543L92.9356 141.819L93.0143 141.804L93.1482 141.536L93.1016 141.504L92.8852 141.543Z" fill="white" fill-opacity="0.6"/>
<path d="M75.8619 144.999L75.5704 144.749L75.849 144.218L76.3777 143.977L77.1201 143.922L77.2732 143.547L77.1444 143.223L76.7344 142.928L76.7055 142.607L77.5106 142.475L77.7243 142.082L77.7031 141.541L77.278 141.106L77.627 140.278L77.7774 139.402L77.6328 138.957L77.7027 138.099L77.4305 137.869L77.2906 137.865L76.9383 138.213L76.3986 138.194L76.209 138.467L76.089 138.463L76.0699 137.862L75.8742 137.735L76.0129 137.2L76.3003 136.99L76.8186 137.048L77.3583 137.066L77.7409 137L79.5798 137.064L80.2517 137.307L80.284 137.528L80.2302 137.927L79.9427 138.137L79.423 138.119L79.2059 138.031L79.066 138.026L78.6889 138.514L78.553 141.27L78.2538 141.82L78.5854 143.793L78.7356 144.078L78.93 144.245L79.2511 144.216L79.5386 144.006L79.7971 144.055L80.1553 144.688L80.2607 145.112L80.1275 145.488L79.8779 145.759L79.0426 145.61L77.9605 145.653L77.7379 145.725L77.2879 145.429L76.684 145.528L75.8473 145.419L75.8619 144.999ZM71.999 138.681L71.8213 138.035L71.8738 137.676L72.544 136.819L73.1919 136.601L73.8715 136.625L74.1272 136.754L74.427 136.764L75.1352 138.27L75.2742 138.875L75.2218 139.234L75.2162 139.393L75.5214 139.824L75.6082 140.208L75.7825 140.374L76.1864 140.268L76.7715 140.708L77.0409 141.018L76.8195 141.63L75.7353 141.733L75.5512 141.847L75.4471 141.963L75.2533 142.357L75.4379 142.803L75.1305 143.013L74.9476 143.667L75.0509 144.151L74.9129 144.666L74.4986 145.072L74.3654 145.448L74.0814 145.558L73.1971 145.667L72.6307 145.267L72.4122 145.22L71.6446 144.272L71.7419 143.775L72.1757 142.81L72.3398 142.696L73.0966 142.802L73.2951 142.849L73.415 142.853L74.1856 142.56L74.2506 141.841L74.7173 141.657L74.9048 141.444L74.9152 141.144L74.6437 140.894L74.2301 141.28L74.1501 141.278L74.0344 141.153L74.1744 140.578L74.0719 140.074L73.8845 139.707L73.906 139.088L73.7021 138.62L73.6533 138.299L73.5375 138.174L73.0323 138.317L72.7186 138.706L72.7144 138.826L72.2147 138.809L71.999 138.681ZM75.422 138.08L75.4282 137.9L75.4703 137.841L75.6102 137.846L75.688 137.909L75.5805 138.125L75.422 138.08Z" fill="white" fill-opacity="0.6"/>
<path d="M59.5855 142.131C59.4457 142.604 59.2324 142.902 58.9455 143.026C58.6587 143.15 58.3554 143.164 58.0358 143.07C57.7033 142.972 57.4504 142.792 57.2769 142.533C57.0906 142.269 57.0674 141.901 57.2072 141.428C57.3433 140.967 57.563 140.671 57.8664 140.538C58.157 140.401 58.4686 140.382 58.801 140.481C59.1207 140.575 59.3654 140.759 59.5351 141.031C59.7048 141.304 59.7216 141.67 59.5855 142.131Z" fill="white" fill-opacity="0.6"/>
<path d="M42.2925 128.12L42.1758 127.026L42.48 126.672L43.5153 126.497L43.7697 126.695L43.86 127.052L44.7363 127.574L45.0383 127.614L46.3039 128.694L46.3675 129.291L46.0093 129.892L45.8345 129.951L44.7225 129.707L44.5272 129.801L44.1134 130.183L43.7709 130.328L43.4985 130.98L43.0072 131.805L42.6208 132.18L42.4677 132.555L41.8977 133.472L41.8404 133.764L41.4883 134.159L41.4719 134.382L40.9323 135.132L40.672 135.256L40.5978 135.654L40.543 135.668L40.4205 135.991L40.49 136.265L40.0805 136.952L40.2224 137.34L41.1115 137.567L41.276 137.525L41.5271 137.768L41.752 138.367L42.5935 138.752L43.2391 138.997L43.5916 138.718L44.0255 138.185L44.179 137.927L44.1341 137.807L44.2057 137.687L44.7402 137.493L45.0195 136.868L44.9427 136.45L46.1172 134.752L46.1775 134.299L46.5665 133.646L47.0118 133.446L47.7718 131.896L47.5886 131.461L47.5118 131.043L47.1433 130.568L47.2782 129.833L47.4252 129.665L47.7202 129.677L48.3863 129.888L49.2169 130.057L49.6987 130.577L49.8263 130.792L50.1454 130.843L51.1592 131.447L51.131 132.315L50.707 132.714L50.3608 132.787L49.9312 132.531L49.3697 132.848L49.0882 132.774L48.8484 132.864L48.023 134.327L48.0032 134.595L47.3818 135.482L47.3416 135.784L46.8254 136.338L46.4269 137.241L46.0029 137.64L45.7514 138.375L45.3339 138.685L44.8908 139.585L44.885 139.908L45.0506 140.216L45.4429 140.612L45.4886 140.966L45.2568 141.433L45.1544 141.605L44.7944 141.623L44.409 141.254L43.9835 141.186L43.2107 140.842L42.9836 140.637L42.8111 140.302L41.9798 139.9L40.9799 139.351L40.75 139.307L40.1486 138.948L39.9566 138.997L39.5987 138.621L39.5366 138.491L38.045 137.556L37.433 137.098L36.8752 136.393L36.9219 136.002L37.0382 135.885L38.0947 135.909L38.3524 136.063L38.517 136.021L38.7275 135.355L39.4038 134.454L39.4952 134.066L40.5195 132.581L40.8982 131.946L40.9139 131.489L41.0368 131.283L41.3179 131.241L41.542 130.513L41.9627 130.159L42.2197 130.079L42.6887 128.705L42.5231 128.397L42.2925 128.12Z" fill="white" fill-opacity="0.6"/>
<path d="M24.5784 131.455L25.0022 131.002L25.046 131.043L25.6951 130.555L26.3377 129.869L26.3414 129.982L26.675 129.801L26.7918 129.911L27.5076 129.731L27.4911 129.661L27.9152 129.647L27.9115 129.534L28.6173 129.483L29.3268 129.545L29.9325 129.893L30.1952 130.139L29.9685 130.995L29.2884 131.4L29.2008 131.317L29.0467 131.365L28.8206 131.372L28.8516 131.456L28.6547 131.491L28.518 131.637L28.372 131.5L28.0747 131.496L27.9243 131.656L27.7976 131.675L27.9892 131.909L27.9637 131.995L28.0804 132.104L27.9729 132.277L27.9903 132.376L28.1071 132.485L27.9594 132.731L27.9659 132.928L27.8528 132.932L27.8565 133.045L27.7154 133.489L27.162 133.875L26.6852 134.003L26.5895 134.105L26.2757 134.031L25.8654 134.03L25.8763 133.931L25.2935 133.851L25.1475 133.714L25.1265 133.502L24.7078 133.247L24.7761 133.174L24.7588 133.076L24.6128 132.939L24.7122 132.95L24.661 132.683L24.5588 132.587L24.6135 132.529L24.4912 132.25L24.4036 132.168L24.554 132.007L24.6495 131.466L24.5784 131.455Z" fill="white" fill-opacity="0.6"/>
<path d="M17.5403 114.402L17.554 114.247L18.3558 114.104L18.7587 113.702L20.908 112.94L21.7257 113.346L22.7177 113.583L23.206 113.585L23.4679 113.646L23.8786 114.238L24.3645 114.411L24.7711 114.787L25.6518 115.003L26.057 115.306L26.7428 115.487L26.8022 115.397L26.8437 115.247L26.5722 114.68L26.7132 114.217L26.0972 113.33L26.1794 112.396L26.0311 112.183L25.52 112.148L24.7922 111.801L23.7144 111.722L23.1905 111.599L22.971 111.142L23.4214 110.318L24.4071 109.634L25.213 109.707L25.5666 109.34L25.6501 109.355L25.9682 109.743L26.215 109.888L26.5217 110.259L26.9862 110.473L27.7363 111.413L27.7975 111.711L28.0612 112.161L28.0648 112.938L28.4983 113.562L28.3454 114.569L28.6963 114.934L29.744 115.18L30.058 115.352L30.2204 115.726L30.1136 116.239L29.525 116.794L29.0458 116.98L28.4626 116.947L27.9064 117.163L27.613 117.196L27.1548 117.027L26.955 117.02L26.5808 117.182L25.8936 116.929L25.701 116.722L24.8924 116.504L24.6798 116.408L24.2258 116.456L23.9958 116.615L23.8288 116.585L23.665 116.139L23.6622 115.995L23.3684 115.712L22.7218 115.552L22.4621 115.319L21.5878 115.146L20.6223 114.843L19.8068 115.141L19.5896 115.39L19.4878 115.874L19.2049 116.168L18.922 117.339L19.9614 118.906L20.5957 119.293L20.7568 119.595L20.848 119.726L21.3413 119.7L21.919 119.445L22.5538 118.396L22.9749 118.371L23.904 118.798L23.998 119.073L23.6785 120.366L22.5259 121.021L21.7889 121.362L20.9853 121.116L20.5363 121.136L19.3768 120.553L18.8384 119.953L18.5915 119.808L17.7775 118.425L17.7173 117.883L17.3951 117.279L17.1351 115.852L17.1625 115.541L17.6425 115.11L17.6914 114.76L17.5403 114.402Z" fill="white" fill-opacity="0.6"/>
<path d="M16.1887 98.4034L16.9278 98.0973L17.2828 98.275L17.7267 99.3467L18.3939 99.5466L18.6463 99.5286L18.8311 99.4521L18.9443 98.9939L18.7308 98.8442L18.0509 98.8228L17.9883 98.5672L18.6153 98.1993L18.6966 97.5595L19.2713 97.1699L19.6237 97.1322L20.1278 97.3564L20.6227 98.342L20.8013 98.9824L21.2885 99.9496L21.8268 101.458L21.5581 101.959L21.0655 102.077L20.6831 101.781L20.2629 101.132L19.3974 100.819L19.0432 101.009L18.721 102.009L19.3032 103.153L20.0256 104.218L20.1966 104.84L20.1451 105.186L20.518 105.616L20.5895 105.997L20.3857 106.342L19.1477 106.854L18.4677 106.833L17.8686 106.432L15.6559 105.898L14.9097 105.925L13.1322 105.449L12.5599 105.427L11.9207 105.085L11.4994 104.957L10.8978 104.968L9.98193 104.481L9.88375 104.349L9.86713 104.204L10.2083 102.937L10.7721 102.573L12.9525 101.67L13.6203 101.61L14.0332 101.353L14.3568 101.089L15.0431 101.021L15.4961 100.703L15.8657 100.55L16.1387 99.4849L15.897 98.849L16.1887 98.4034ZM15.861 102.003L15.5163 102.059L15.3386 102.414L15.0889 102.647L14.2147 102.836L13.6286 103.512L13.2934 103.434L13.2284 103.591L13.4375 103.678L14.1971 103.839L15.6974 104.43L15.9128 104.427L16.5878 104.646L17.2263 104.619L17.6626 104.157L17.7052 103.685L17.4334 102.715L16.9599 102.565L16.7303 102.011L16.5888 101.983L16.318 102.008L15.861 102.003Z" fill="white" fill-opacity="0.6"/>
<path d="M10.1678 88.195C9.67922 88.2631 9.31929 88.1922 9.08803 87.9822C8.85678 87.7721 8.71811 87.502 8.67203 87.1719C8.62411 86.8286 8.6826 86.5242 8.84751 86.2589C9.01057 85.9803 9.3364 85.807 9.825 85.7388C10.3004 85.6724 10.6612 85.7499 10.9075 85.9714C11.152 86.1796 11.2982 86.4553 11.3461 86.7987C11.3922 87.1288 11.3262 87.4275 11.1481 87.6946C10.97 87.9618 10.6432 88.1286 10.1678 88.195Z" fill="white" fill-opacity="0.6"/>
<path d="M8.83708 70.3113L9.11009 70.041L9.61649 70.3616L9.81476 70.9081L9.80885 71.6524L10.1702 71.8353L10.5042 71.7332L10.8308 71.3483L11.1532 71.3455L11.2199 72.1586L11.5941 72.4034L12.1351 72.426L12.6031 72.0374L13.4006 72.4521L14.2608 72.6729L14.7164 72.5647L15.566 72.7036L15.8168 72.4509L15.833 72.3118L15.5146 71.9326L15.5769 71.3962L15.3196 71.1851L15.3334 71.0659L15.934 71.0954L16.0763 70.9105L16.5988 71.092L16.7851 71.3956L16.6853 71.9075L16.623 72.4439L16.6587 72.8306L16.4464 74.6583L16.1494 75.3083L15.9262 75.3227L15.5335 75.2368L15.3473 74.9333L15.4073 74.4168L15.5122 74.2075L15.5283 74.0684L15.0732 73.6531L12.3362 73.295L11.8123 72.9522L9.8192 73.1234L9.52261 73.25L9.34061 73.4303L9.34342 73.7527L9.52965 74.0562L9.45992 74.3099L8.80022 74.6158L8.36918 74.6866L8.00556 74.5235L7.75512 74.2528L7.97123 73.4323L8.01637 72.3503L7.96228 72.1225L8.29349 71.6979L8.24351 71.088L8.41989 70.2629L8.83708 70.3113ZM15.4465 66.9716L16.1053 66.8468L16.4583 66.928L17.2586 67.6653L17.4232 68.3287L17.3447 69.0042L17.1955 69.2486L17.1609 69.5466L15.6031 70.1307L14.9886 70.2204L14.6357 70.1392L14.4767 70.1207L14.0226 70.3901L13.6336 70.4456L13.4539 70.606L13.527 71.0171L13.0406 71.5647L12.7103 71.8082L12.1175 71.538L12.103 70.449L12.0046 70.2564L11.8969 70.1432L11.5203 69.9183L11.0602 70.0662L10.8763 69.7428L10.2392 69.5077L9.74852 69.5715L9.24584 69.3924L8.87479 68.9466L8.51117 68.7835L8.42428 68.4916L8.38674 67.6013L8.83112 67.069L8.89624 66.8551L9.90239 66.1666L10.3898 66.3037L11.3171 66.8141L11.4179 66.9869L11.2507 67.7326L11.1879 67.9266L11.1741 68.0458L11.4042 68.8377L12.1148 68.9605L12.2604 69.4405L12.4582 69.6447L12.7562 69.6793L13.0269 69.4288L12.6757 68.9853L12.6849 68.9059L12.818 68.8005L13.3803 68.9866L13.8908 68.9251L14.2714 68.768L14.8873 68.8395L15.3696 68.6741L15.6944 68.6514L15.8274 68.546L15.7262 68.0309L15.3635 67.6868L15.2443 67.6729L15.302 67.1763L15.4465 66.9716ZM15.7695 70.4319L15.9483 70.4527L16.0032 70.4994L15.9871 70.6384L15.9183 70.711L15.7113 70.5863L15.7695 70.4319Z" fill="white" fill-opacity="0.6"/>
<path d="M13.1109 51.895L13.4706 52.0177L13.8212 53.4053L13.5595 53.7387L13.7857 53.9427L14.4353 54.2067L14.7681 54.5316L16.0931 54.9838L16.4398 55.1444L17.5704 55.3612L17.973 55.6676L18.3645 55.759L18.5159 55.8107L18.8593 55.5475L18.9885 55.1689L19.2304 54.9556L19.3143 54.7095L20.2164 55.0385L20.2803 55.8422L19.984 56.5864L19.5575 56.9692L19.5488 57.3043L19.325 57.6506L19.1958 58.0292L18.9982 58.2365L18.9013 58.5204L18.3871 58.7887L18.0085 58.6595L17.9032 58.3488L18.1193 58.2112L18.2291 57.8894L18.0222 57.6286L17.7374 57.6582L17.6049 57.613L17.7553 56.9247L17.6371 56.6519L17.4478 56.5873L16.9723 56.742L16.7073 56.6516L16.5356 56.7832L15.8542 56.5506L15.7148 56.5876L15.3561 56.3383L15.1395 55.6727L15.0019 55.4567L14.1913 55.6027L13.3267 56.2163L13.2621 56.4056L13.451 56.5334L14.3101 56.6787L14.239 56.8869L13.8905 56.9793L13.7391 56.9276L13.5609 57.0782L13.5406 57.2614L13.7974 57.6238L14.6861 58.0539L15.5568 58.351L16.052 58.0763L16.2293 58.0522L16.4366 58.2498L16.4704 58.8319L16.5895 58.9782L16.9492 59.101L17.0124 59.1014L17.2017 59.166L17.3624 59.6858L18.018 59.9941L18.1493 61.0955L17.9606 61.8341L17.3684 62.3928L17.2151 62.5941L17.012 62.6939L15.9697 62.5283L15.4867 61.9619L15.411 61.9361L15.2863 61.6822L15.6204 60.9509L16.4375 60.786L16.635 60.5787L16.7157 59.9089L16.5019 59.7302L15.9909 59.5558L15.8473 59.2955L15.4059 59.1026L14.6686 58.7242L14.2093 58.3983L13.3506 58.1898L12.9424 57.7758L12.3792 57.816L11.9283 58.0848L11.902 58.2237L11.8503 58.3752L11.5142 58.4929L11.1838 58.7182L11.0675 59.059L10.8644 59.1587L10.5366 59.0046L10.3888 58.4469L11.1354 56.6307L11.0615 56.3519L11.7285 55.9456L11.4529 55.5768L11.5663 54.7491L11.916 53.6005L12.1579 53.3871L12.0987 52.8175L12.635 52.113L13.1109 51.895ZM13.004 56.233L13.0428 56.1194L12.8725 56.0613L12.8337 56.1748L13.004 56.233Z" fill="white" fill-opacity="0.6"/>
<path d="M21.5662 40.7859L23.1684 41.4993L23.8242 42.1537L24.7896 43.4166L25.0604 44.2821L25.1579 44.7387L25.2545 45.4285L24.5292 46.626L24.5624 46.8799L24.3655 47.205L24.0255 47.303L23.8723 47.8649L23.4318 48.206L23.2245 48.5481L22.2492 48.8459L22.046 49.0268L21.4666 48.9798L21.0442 49.0981L20.3594 48.8002L19.1641 48.3802L18.7473 47.9874L17.9946 47.5315L17.3771 46.7366L17.0126 46.1416L16.6093 45.8038L16.5491 45.44L16.6744 45.0014L16.4369 44.3899L16.5415 43.9856L16.5507 43.43L16.6957 43.1905L16.8606 43.15L16.9237 42.8142L16.8729 42.6664L17.276 42.2325L18.0967 41.1864L19.0307 40.9571L19.155 40.7518L20.3761 40.7432L21.5662 40.7859ZM23.0428 42.8261L22.4901 42.1172L22.1231 42.1054L20.6739 41.7186L19.5212 41.7686L18.9725 42.5587L18.4848 42.7075L17.4123 44.0922L17.6192 44.6384L17.7998 45.7299L18.8496 46.5061L19.0534 46.9803L19.2758 47.115L19.7931 47.2646L20.2036 47.5133L21.259 47.7784L21.3729 47.5903L22.3235 47.4879L23.2242 47.0046L23.6107 46.4438L23.9112 45.9477L23.9189 45.7419L24.0847 45.4682L24.0992 45.2899L23.8787 44.6887L23.9616 44.5519L23.9434 44.003L23.5063 43.5278L23.0428 42.8261Z" fill="white" fill-opacity="0.6"/>
<path d="M28.8798 27.6581L29.3604 27.6441L29.6417 28.0745L29.6799 28.4129L29.2544 28.8639L28.9986 29.3099L29.119 29.5611L30.2246 30.6042L30.4953 30.6671L30.6698 30.8318L30.7192 31.0709L31.432 31.7434L31.8888 32.3668L32.2607 32.9926L32.6548 32.9246L33.0921 33.3646L33.5985 33.265L34.1299 33.0515L34.2106 32.9076L34.5208 32.8703L34.7536 33.0899L34.7294 33.2321L33.9503 34.1744L33.7236 34.6479L33.2504 34.9163L32.7974 35.3963L32.1447 35.3304L32.097 35.1479L32.1516 34.5945L32.3067 34.5759L32.4714 34.4013L32.4333 34.0629L31.7084 33.4614L30.8646 32.6654L30.4622 32.4507L30.4202 32.4661L30.3104 32.5824L30.3041 32.8514L29.8858 33.0617L29.849 33.7419L29.1737 33.8747L28.6022 34.6553L28.2201 34.6523L28.1613 35.0643L28.1825 35.3042L28.976 35.8329L29.4481 36.4982L30.1705 37.0149L30.383 37.0228L30.4675 36.5252L31.1049 36.5491L31.2358 36.6726L31.1609 37.0144L30.6717 37.7077L29.2909 38.8797L28.9163 39.1311L28.6399 38.8703L28.7398 38.4147L29.2421 38.1737L29.1911 37.8781L28.6987 37.0011L28.3012 36.956L27.9131 36.2599L27.1342 35.7449L26.014 34.6881L25.3221 33.7603L25.0781 33.6401L24.6249 33.6249L24.1753 34.2181L23.7213 34.1747L23.3979 33.7596L23.9865 33.0776L23.9541 32.937L24.9901 32.0722L25.141 31.9122L25.1191 31.644L25.4227 31.3805L26.3 31.3833L26.4454 31.5205L26.4504 31.6902L25.819 32.3593L25.8986 33.1493L26.4448 33.4447L26.7083 33.7483L26.9751 34.165L27.2353 34.3555L27.6286 34.2592L28.1227 33.7355L28.0862 33.4536L28.5029 33.1868L28.425 32.4533L28.5348 32.337L29.0195 32.4643L29.3832 32.8075L29.6102 32.8292L29.6514 32.7855L29.4678 32.3098L29.1129 31.7825L29.596 31.8534L29.6783 31.7661L29.4365 31.2355L28.6655 30.5081L28.5854 30.185L28.2986 30.0518L28.0878 30.1004L27.7496 30.6337L26.928 30.601L26.7913 30.2796L26.7678 29.9549L27.9569 28.5196L27.9657 28.3354L28.8798 27.6581Z" fill="white" fill-opacity="0.6"/>
<path d="M41.2108 18.6954L41.3576 18.9101L41.0107 19.6075L40.9202 19.9359L40.2928 20.3648L40.2533 21.2639L40.5623 22.0702L41.1989 22.4345L41.3716 22.9706L41.752 23.2435L42.5358 24.8154L43.0491 25.0702L43.3098 25.0616L43.8546 24.6891L44.3107 24.7892L44.653 24.6521L45.2965 25.1328L45.6032 25.2623L45.7219 25.9322L46.1533 26.7759L46.08 27.6255L45.9114 27.9104L45.6802 28.0684L45.2068 27.9075L44.2543 26.6205L44.0988 26.6057L43.653 26.9104L43.3368 26.9085L42.7198 27.2819L42.4314 27.2852L42.1524 27.6213L41.9031 27.6464L41.6857 28.0372L41.2939 28.2082L41.0149 28.5443L40.7837 28.7023L40.4336 28.6509L39.9851 29.1998L39.5393 29.5045L39.3698 29.7173L39.1101 29.798L39.0699 30.1646L39.7054 31.3776L39.6322 31.7668L38.985 31.9186L38.8364 32.0201L38.508 31.9297L37.9307 30.9434L37.5177 29.7722L37.7038 29.0877L37.9785 28.8515L38.0804 28.0792L38.0683 27.9906L38.1839 27.9116L38.6243 28.0951L38.7233 28.0273L38.5542 27.3193L38.6848 26.6243L38.2237 26.0916L37.2401 24.5109L37.0223 23.9088L36.6184 23.5307L36.3413 23.5506L36.2491 23.7347L36.1831 23.7799L36.0771 23.7312L35.8288 23.368L35.4961 23.3774L35.1788 23.7638L34.9807 23.8993L34.2954 23.641L34.0109 22.5515L34.13 22.3005L34.6914 21.9167L34.7018 21.8611L35.1206 21.6232L35.4412 21.5252L35.9366 21.1866L36.1477 21.2119L36.5205 20.8359L36.6074 20.6795L36.9993 20.5085L37.4121 20.2264L37.7448 20.2169L38.3948 19.8211L38.7415 19.584L38.9311 19.188L39.5731 19.064L39.9407 18.7158L41.2108 18.6954ZM40.3095 24.1812L40.2114 23.8606L39.3058 22.7838L38.7663 22.6681L38.2409 22.3247L38.0584 22.3768L37.7412 22.7632L38.0911 23.2751L38.5914 23.3691L38.693 23.5177L38.673 23.701L38.6399 23.7236L38.5513 23.7357L38.3394 23.6383L38.3515 23.7269L39.1537 24.9713L39.6921 25.4754L39.725 25.9132L40.0053 26.6422L40.4369 27.0255L40.6532 27.023L41.2459 26.4725L41.4294 26.0321L40.7835 24.8746L40.2355 24.4983L40.3095 24.1812Z" fill="white" fill-opacity="0.6"/>
<path d="M55.7556 17.5165L56.8332 18.4176L56.7496 18.7968L56.6799 18.9977L56.4761 19.0804L56.2717 19.8538L56.1094 20.0923L55.1747 20.3418L54.6587 20.3999L54.0746 20.1835L53.3623 20.3428L53.0331 20.6489L52.7196 21.0998L52.3053 21.462L51.6746 21.6098L50.6117 22.235L49.8838 22.2496L48.7191 21.7722L48.4 21.8368L47.867 21.4271L47.5814 20.7228L47.4211 20.5935L47.3635 20.1853L47.7051 19.3777L47.9605 18.4109L48.3713 18.0933L48.2881 17.7817L48.8662 17.5042L49.0621 17.2953L49.7033 17.0137L50.0173 16.6706L50.2583 16.5729L50.364 16.9401L51.2491 16.4085L51.2807 16.0073L51.0272 15.8079L50.4426 15.4838L50.5768 14.8036L50.0288 14.3567L49.8875 14.3277L49.8504 14.3427L49.7483 14.7294L49.4402 14.768L49.1236 14.5727L49.0414 14.4765L48.819 14.5667L48.6292 15.2695L48.8697 15.8626L48.6127 16.5063L47.969 17.0479L47.2427 17.3855L46.8033 17.1536L46.4366 16.5685L46.2848 15.8747L46.8553 14.7801L47.3252 14.3954L47.74 14.1409L48.006 13.8388L48.8215 13.5082L49.08 13.1876L49.377 13.175L49.89 13.2692L50.6684 12.9536L52.3626 13.0868L53.2493 13.6768L53.3119 14.3636L53.3946 14.5675L53.6927 14.7704L53.874 15.4306L54.1746 16.172L54.0689 16.6033L54.4402 17.3592L54.5509 18.0049L54.839 18.4492L54.9877 18.4968L55.5332 17.6066L55.7556 17.5165ZM51.736 15.6932L51.737 15.1101L51.2341 14.7745L51.0858 14.8346L51.0046 14.9538L51.0798 15.1392L51.5136 15.7834L51.736 15.6932ZM53.2715 18.4157L52.737 16.8844L52.4128 16.6705L52.3001 17.191L52.1148 17.2661L51.8618 17.1745L51.3955 17.5146L51.122 17.7982L50.8224 18.0707L50.5138 18.0016L49.7795 18.213L49.2435 18.754L48.8618 18.9304L48.6113 19.3772L48.6504 19.793L48.8468 20.4903L49.1148 20.619L49.5431 20.877L49.8657 20.7678L50.279 20.9887L50.8471 20.9526L51.4196 21.0873L51.5679 21.0272L51.6926 20.6961L51.6816 19.9236L51.8148 19.8264L52.2311 19.895L52.4079 19.586L52.7566 19.4878L53.0231 19.2934L53.2765 18.6943L53.2715 18.4157Z" fill="white" fill-opacity="0.6"/>
<path d="M65.5648 5.75102L65.8459 6.77794L65.6346 7.07885L65.3657 7.1665L65.1904 7.44081L65.3489 8.34705L65.0928 8.39185L64.5441 8.04114L64.3471 8.0756L64.1856 8.42873L64.2062 8.54693L63.7787 8.5405L63.528 8.8483L63.0749 8.92756L62.8587 8.62022L62.7263 8.09519L62.5573 7.942L62.214 8.18479L62.1234 8.36307L62.1544 8.54038L62.4322 8.73544L62.4529 8.85364L62.374 8.86743L62.045 8.84376L61.7801 8.60586L61.6166 8.71568L61.5072 9.01906L61.3412 9.23083L61.2314 9.0673L61.1625 8.67329L60.9079 8.49449L60.2902 8.56192L59.6865 7.89599L59.4511 7.24684L59.49 6.77304L60.1747 6.04417L60.5796 5.6891L60.9677 5.70242L61.2119 5.82212L61.5074 5.77043L61.9265 6.77322L62.0225 6.85794L62.2816 7.17809L62.5712 7.20865L62.7938 7.08849L62.8702 6.3645L63.2002 6.50982L63.542 6.49063L63.4489 5.95871L64.2055 5.17665L64.6527 5.17964L65.5648 5.75102ZM66.8432 8.53235L67.0815 8.7343L67.1041 9.0958L66.7815 9.45679L66.0964 9.71876L65.8753 9.61532L65.7571 9.636L65.6571 9.87683L65.9328 10.6407L65.8707 11.0983L66.1958 11.4475L66.4336 12.8069L66.3858 12.998L65.9317 12.9556L65.4392 12.2296L65.3432 12.1448L64.5551 12.2827L64.4246 12.8131L64.1542 13.1244L64.266 13.5312L64.0167 13.6154L63.8867 13.8006L63.8921 14.0636L63.5951 14.3389L63.4916 14.56L63.6433 15.4268L63.5132 15.612L62.935 15.6726L62.7666 15.9863L63.1383 16.8349L63.0334 17.2796L62.7852 17.4855L62.0484 17.4519L61.8198 17.6544L60.4142 17.8596L60.2546 17.6439L60.2236 17.4666L60.4221 17.2085L61.2101 17.0707L61.4889 16.5752L62.1346 16.3201L62.1603 15.4223L61.9885 14.9042L61.7048 14.7914L61.2123 14.8775L60.7858 14.1806L60.8701 13.6176L60.3723 11.8165L60.1074 10.7664L59.7902 10.5782L59.1598 10.6885L58.9746 10.5585L58.9657 10.2758L59.2731 10.0596L59.7331 10.0197L60.3655 10.1527L61.1506 9.64994L61.3279 9.61893L61.5869 9.93908L61.9041 10.1272L62.0912 10.5006L61.8897 11.2059L61.4696 11.7057L61.5282 12.0406L61.9886 12.4677L62.3609 12.9711L62.4989 12.9469L62.8357 13.1317L63.2524 13.4242L63.607 13.3622L63.5844 13.0007L63.774 12.4599L64.01 11.9517L63.7337 11.533L64.0341 11.2774L63.9923 10.5741L63.6097 10.0116L63.6831 9.73484L63.885 9.49648L64.2268 9.47729L64.6228 9.65167L64.8848 9.52462L64.9942 9.22124L65.4798 9.09569L65.9103 8.65492L66.8432 8.53235ZM67.9325 16.0369L67.9705 16.2536L67.6887 16.3841L67.3627 16.7254L66.7775 16.7465L66.2062 16.8465L66.0082 16.7593L65.6881 17.0183L65.2675 17.0513L65.101 16.7961L65.07 16.6188L65.2685 16.3608L65.8861 16.2933L65.9708 16.1973L65.7655 15.6038L65.7916 15.1729L66.0808 14.7365L66.0325 14.4607L65.71 14.0095L65.6598 13.4904L65.9819 13.4747L66.3138 13.8633L66.6477 14.4952L66.7373 15.0074L66.6013 15.2749L66.7619 15.6122L67.6326 15.9472L67.7508 15.9265L67.9325 16.0369ZM60.9514 11.8776L60.9032 11.6018L60.8244 11.6155L60.6884 11.883L60.7347 11.9155L60.9514 11.8776Z" fill="white" fill-opacity="0.6"/>
<path d="M77.978 8.49684L78.2676 8.74935L77.9849 9.27783L77.4543 9.51553L76.7116 9.56405L76.5556 9.93777L76.6819 10.2634L77.0896 10.561L77.116 10.8824L76.31 11.0083L76.0932 11.3995L76.1102 11.9407L76.532 12.379L76.1766 13.2046L76.0194 14.0787L76.1606 14.5251L76.0841 15.3827L76.3545 15.6144L76.4944 15.6203L76.8494 15.275L77.3889 15.298L77.5806 15.0259L77.7005 15.0309L77.715 15.6321L77.9097 15.7605L77.7669 16.2949L77.4778 16.5028L76.96 16.4408L76.4205 16.4179L76.0374 16.4817L74.1991 16.4036L73.529 16.1549L73.4984 15.9334L73.5553 15.5355L73.8444 15.3276L74.364 15.3496L74.5804 15.4389L74.7202 15.4448L75.1011 14.9606L75.2582 12.2048L75.5617 11.6571L75.2453 9.68193L75.0973 9.39539L74.9043 9.22705L74.5829 9.25343L74.2938 9.46135L74.0357 9.41036L73.6824 8.77479L73.5803 8.35007L73.7163 7.97551L73.968 7.70595L74.8021 7.86149L75.8846 7.82739L76.1078 7.7568L76.5555 8.05607L77.16 7.96164L77.9959 8.07722L77.978 8.49684ZM81.7921 14.8444L81.9648 15.4923L81.9095 15.8503L81.2327 16.7024L80.5831 16.915L79.9038 16.8861L79.6491 16.7552L79.3493 16.7425L78.6528 15.2315L78.5184 14.6253L78.5737 14.2673L78.5805 14.1075L78.2786 13.6743L78.1948 13.2904L78.0218 13.1229L77.617 13.2258L77.0354 12.7807L76.7684 12.4691L76.9945 11.8581L78.0795 11.7641L78.2644 11.6518L78.3694 11.5362L78.5662 11.1442L78.3851 10.6961L78.6941 10.489L78.882 9.83641L78.7825 9.35175L78.9244 8.83731L79.3419 8.43466L79.4779 8.0601L79.7628 7.95209L80.6479 7.84956L81.2113 8.25383L81.4294 8.30313L82.1896 9.25625L82.0885 9.75241L81.6472 10.7145L81.4823 10.8277L80.7264 10.7155L80.5282 10.667L80.4083 10.6619L79.6355 10.9494L79.5649 11.667L79.0969 11.8473L78.9077 12.0595L78.895 12.3592L79.1645 12.6109L79.5811 12.2282L79.6611 12.2316L79.7759 12.3566L79.6314 12.931L79.73 13.4356L79.9146 13.8038L79.8883 14.4232L80.0885 14.8922L80.1349 15.2144L80.2497 15.3394L80.756 15.2008L81.0727 14.8139L81.0778 14.694L81.5774 14.7152L81.7921 14.8444ZM78.3646 15.4195L78.357 15.5993L78.3145 15.6576L78.1746 15.6516L78.0972 15.5883L78.2064 15.3727L78.3646 15.4195Z" fill="white" fill-opacity="0.6"/>
<path d="M94.2811 11.4348C94.4245 10.9628 94.6401 10.666 94.9279 10.5444C95.2157 10.4228 95.519 10.4104 95.838 10.5073C96.1697 10.6081 96.4213 10.789 96.5928 11.0502C96.777 11.3152 96.7974 11.6837 96.654 12.1557C96.5145 12.615 96.2926 12.9099 95.9882 13.0404C95.6965 13.1747 95.3848 13.1915 95.0531 13.0907C94.7342 12.9938 94.4909 12.8085 94.3233 12.5346C94.1557 12.2607 94.1416 11.8941 94.2811 11.4348Z" fill="white" fill-opacity="0.6"/>
<path d="M111.541 25.5687L111.645 26.6637L111.337 27.0146L110.3 27.1779L110.048 26.977L109.961 26.6196L109.091 26.0879L108.789 26.0444L107.536 24.9506L107.479 24.3533L107.843 23.7559L108.019 23.699L109.128 23.9547L109.324 23.8637L109.742 23.4862L110.087 23.3449L110.366 22.6953L110.866 21.8761L111.257 21.5053L111.414 21.1326L111.994 20.2214L112.055 19.9303L112.411 19.5386L112.43 19.3158L112.978 18.5724L113.24 18.451L113.318 18.0537L113.373 18.0404L113.499 17.719L113.433 17.444L113.85 16.7613L113.712 16.3726L112.826 16.1358L112.661 16.1757L112.412 15.9302L112.194 15.3282L111.357 14.934L110.714 14.682L110.358 14.957L109.919 15.4852L109.762 15.7412L109.806 15.8616L109.733 15.9811L109.196 16.169L108.91 16.791L108.982 17.21L107.789 18.8951L107.724 19.3473L107.328 19.9959L106.88 20.1914L106.103 21.7322L106.282 22.1692L106.354 22.5883L106.717 23.0679L106.574 23.8008L106.425 23.9677L106.13 23.9517L105.467 23.7338L104.638 23.5558L104.162 23.0306L104.037 22.8136L103.718 22.7596L102.711 22.1445L102.749 21.277L103.177 20.8825L103.524 20.8132L103.951 21.0738L104.516 20.7627L104.797 20.8404L105.037 20.7531L105.879 19.2985L105.902 19.0311L106.533 18.1512L106.576 17.8497L107.099 17.3015L107.507 16.4026L107.935 16.0081L108.195 15.2761L108.616 14.9707L109.069 14.0756L109.078 13.7533L108.916 13.4433L108.528 13.0423L108.486 12.6887L108.723 12.2241L108.827 12.0534L109.188 12.0391L109.569 12.4125L109.994 12.4845L110.763 12.837L110.987 13.0446L111.156 13.382L111.983 13.7933L112.977 14.3534L113.206 14.3998L113.804 14.7646L113.996 14.7181L114.35 15.0982L114.411 15.2291L115.892 16.1806L116.499 16.645L117.049 17.3559L116.998 17.7465L116.88 17.8622L115.824 17.8265L115.568 17.6701L115.403 17.71L115.185 18.3737L114.499 19.2669L114.403 19.6538L113.363 21.1274L112.977 21.7589L112.956 22.215L112.831 22.4198L112.549 22.4587L112.317 23.1841L111.893 23.534L111.635 23.6109L111.151 24.9791L111.313 25.2891L111.541 25.5687Z" fill="white" fill-opacity="0.6"/>
<path d="M129.543 22.561L129.114 23.0088L129.071 22.9673L128.416 23.4484L127.766 24.1274L127.764 24.0143L127.428 24.1914L127.312 24.0807L126.595 24.252L126.61 24.3224L126.186 24.3316L126.189 24.4447L125.482 24.4884L124.774 24.419L124.172 24.0643L123.912 23.8154L124.148 22.9615L124.832 22.5646L124.919 22.6476L125.074 22.6018L125.3 22.5969L125.27 22.5127L125.467 22.4801L125.605 22.3356L125.75 22.4739L126.047 22.4816L126.199 22.3227L126.326 22.3057L126.137 22.0694L126.163 21.9839L126.048 21.8733L126.157 21.7012L126.141 21.6025L126.025 21.4919L126.176 21.2481L126.171 21.0502L126.284 21.0477L126.282 20.9346L126.428 20.4929L126.986 20.113L127.464 19.9894L127.561 19.8882L127.873 19.9663L128.284 19.9715L128.272 20.0708L128.854 20.1571L128.998 20.2954L129.017 20.5072L129.433 20.7669L129.364 20.8391L129.38 20.9378L129.524 21.0761L129.425 21.0641L129.473 21.3318L129.575 21.4286L129.519 21.4864L129.638 21.7667L129.725 21.8497L129.573 22.0086L129.472 22.5484L129.543 22.561Z" fill="white" fill-opacity="0.6"/>
<path d="M136.359 39.6036L136.343 39.7591L135.54 39.8931L135.133 40.2902L132.975 41.0285L132.162 40.6134L131.172 40.3662L130.684 40.359L130.423 40.2945L130.019 39.6986L129.535 39.5194L129.132 39.1399L128.254 38.9139L127.852 38.6065L127.169 38.4178L127.108 38.507L127.065 38.6571L127.33 39.2264L127.184 39.6879L127.79 40.5818L127.698 41.5144L127.844 41.7296L128.355 41.7699L129.079 42.1247L130.155 42.2159L130.678 42.3449L130.892 42.8036L130.433 43.6227L129.44 44.2963L128.635 44.214L128.277 44.5774L128.194 44.5614L127.88 44.1701L127.635 44.0222L127.332 43.6475L126.87 43.4293L126.13 42.481L126.072 42.182L125.814 41.7292L125.819 40.9525L125.392 40.3235L125.556 39.3182L125.209 38.9493L124.164 38.6914L123.852 38.5164L123.694 38.1404L123.806 37.6292L124.401 37.0808L124.882 36.8994L125.465 36.9392L126.023 36.7295L126.317 36.6994L126.773 36.8733L126.973 36.8828L127.349 36.7244L128.034 36.9852L128.224 37.1945L129.03 37.4211L129.242 37.5192L129.696 37.4768L129.928 37.3196L130.094 37.3515L130.253 37.7996L130.255 37.9438L130.545 38.23L131.19 38.3968L131.447 38.6332L132.319 38.8149L133.282 39.1289L134.1 38.8395L134.32 38.5937L134.427 38.1102L134.713 37.8195L135.009 36.6522L133.987 35.0739L133.357 34.6795L133.199 34.3757L133.11 34.2433L132.616 34.2638L132.036 34.5125L131.389 35.555L130.968 35.575L130.044 35.1386L129.953 34.862L130.286 33.5724L131.446 32.9308L132.187 32.5976L132.987 32.8519L133.437 32.8372L134.59 33.4326L135.121 34.0386L135.367 34.1864L136.166 35.5779L136.22 36.1211L136.535 36.7288L136.78 38.158L136.749 38.4689L136.264 38.8943L136.211 39.2442L136.359 39.6036Z" fill="white" fill-opacity="0.6"/>
<path d="M137.594 55.67L136.852 55.9678L136.499 55.7862L136.067 54.7096L135.402 54.5022L135.149 54.5173L134.964 54.5918L134.845 55.0487L135.057 55.2007L135.737 55.2298L135.796 55.486L135.165 55.8469L135.077 56.4857L134.498 56.8688L134.145 56.9026L133.643 56.6728L133.16 55.6816L132.988 55.0393L132.512 54.0667L131.99 52.5519L132.265 52.054L132.759 51.9421L133.138 52.2426L133.551 52.8958L134.413 53.2181L134.769 53.0321L135.102 52.0365L134.533 50.8857L133.823 49.813L133.659 49.1893L133.714 48.8438L133.346 48.4096L133.279 48.0272L133.486 47.6853L134.73 47.1864L135.41 47.2155L136.004 47.6235L138.211 48.1822L138.957 48.1629L140.729 48.6589L141.301 48.6881L141.937 49.0366L142.357 49.1699L142.958 49.1656L143.869 49.6624L143.965 49.796L143.98 49.9408L143.625 51.2039L143.057 51.561L140.867 52.4395L140.198 52.4922L139.782 52.7451L139.456 53.0054L138.769 53.0655L138.312 53.3779L137.941 53.5268L137.656 54.5892L137.891 55.2278L137.594 55.67ZM137.962 52.0746L138.307 52.0223L138.489 51.6693L138.741 51.4388L139.618 51.2597L140.211 50.5906L140.546 50.672L140.612 50.516L140.404 50.427L139.646 50.2569L138.153 49.6492L137.937 49.6494L137.265 49.4235L136.626 49.4427L136.185 49.8999L136.137 50.3716L136.398 51.3444L136.87 51.5L137.093 52.0569L137.234 52.0864L137.505 52.0639L137.962 52.0746Z" fill="white" fill-opacity="0.6"/>
<path d="M143.542 66.0456C144.032 65.9831 144.391 66.0581 144.62 66.2708C144.848 66.4835 144.984 66.7552 145.026 67.0858C145.07 67.4297 145.008 67.7334 144.84 67.9968C144.674 68.2734 144.346 68.443 143.857 68.5056C143.381 68.5665 143.021 68.4848 142.777 68.2606C142.535 68.0496 142.392 67.7721 142.348 67.4282C142.306 67.0976 142.375 66.7997 142.556 66.5346C142.738 66.2695 143.066 66.1065 143.542 66.0456Z" fill="white" fill-opacity="0.6"/>
</svg>
