<svg width="57" height="51" viewBox="0 0 57 51" fill="none" xmlns="http://www.w3.org/2000/svg">
<path d="M38.5023 43.1156C30.6915 47.2554 14.768 40.3898 14.4351 28.2033C14.2072 19.8767 20.0517 11.7315 28.7804 10.4542C42.5102 8.44567 52.2707 14.4207 50.684 17.6308C49.5537 19.9186 44.6709 24.1121 34.5598 28.2033C31.5849 29.4071 25.93 30.3566 24.1669 34.9977C22.234 40.0855 26.001 47.8998 32.001 48.7011C39.0975 49.6489 44.8814 45.5381 46.4277 40.2011C48.8455 31.8547 35.2319 20.7439 21.8335 20.1589C16.972 19.9465 9.10247 21.6968 7.6003 26.6296C6.17234 31.3213 10.8273 37.5875 14.4351 37.2252C19.6273 36.7034 16.8757 21.9235 27.7438 13.2463C34.3044 8.00853 43.6232 5.3834 46.4277 9.78482C48.1834 12.5408 46.7628 34.3884 40.9518 39.0713C31.1053 47.0055 8.54908 12.0741 11.8474 7.11707C14.158 3.64458 29.1239 9.48203 33.7326 16.649C40.3139 26.8827 26.2666 45.7701 17.5269 44.6266C10.0968 43.6535 0.444367 25.2842 4.9509 16.8106C10.1953 6.94876 32.8397 10.5477 43.3645 17.6308C50.48 22.4195 54.06 26.0299 51.501 31C49.184 35.5 44.6562 31.3104 37.501 33.7011C28.6687 36.6526 29.8118 43.5602 24.7894 46.6549C18.5109 50.5235 5.94599 46.1287 7.6003 35.4548C3.83304 23.202 19.8895 1.96422 29.501 1.91602C37.8908 1.91602 43.7819 18.5428 43.8701 28.2033C43.8981 31.276 43.9796 40.2119 38.5023 43.1156Z" stroke="#E7E2FF" stroke-width="2.81492" stroke-miterlimit="10"/>
<path d="M37.1437 4.75959L35.1131 2.53681L38.2868 1.38305L37.1437 4.75959Z" fill="#E7E2FF" stroke="#E7E2FF" stroke-width="0.296949"/>
<path d="M36.6634 20.7259L35.4986 17.7406L39.0669 18.3964L36.6634 20.7259Z" fill="#E7E2FF" stroke="#E7E2FF" stroke-width="0.264678"/>
<path d="M24.0311 30.4762L21.8258 28.1511L25.3777 27.4119L24.0311 30.4762Z" fill="#E7E2FF" stroke="#E7E2FF" stroke-width="0.264678"/>
<path d="M53.53 26.0029L51.7171 23.3604L55.341 23.188L53.53 26.0029Z" fill="#E7E2FF" stroke="#E7E2FF" stroke-width="0.264678"/>
<path d="M45.3464 44.6353L46.8648 40.7323L50.0131 44.5686L45.3464 44.6353Z" fill="#E7E2FF" stroke="#E7E2FF" stroke-width="0.384761"/>
<path d="M5.49463 32.8047L1.21074 33.1285L4.00294 29.6899L5.49463 32.8047Z" fill="#E7E2FF" stroke="#E7E2FF" stroke-width="0.360803"/>
<path d="M8.80904 13.5057L5.87156 14.3803L5.2671 10.7548L8.80904 13.5057Z" fill="#E7E2FF" stroke="#E7E2FF" stroke-width="0.339396"/>
<path d="M20.0031 40.3807L17.1953 42.1204L17.4999 38.6409L20.0031 40.3807Z" fill="#E7E2FF" stroke="#E7E2FF" stroke-width="0.347028"/>
</svg>
